<svg width="121" height="31" viewBox="0 0 121 31" fill="none" xmlns="http://www.w3.org/2000/svg">
<path fill-rule="evenodd" clip-rule="evenodd" d="M41.0293 5.56804C41.0293 6.1764 41.039 6.53091 41.1817 7.12017C41.3484 7.80884 41.6124 8.46179 41.9785 9.03487C42.0692 9.17602 42.1542 9.30742 42.2518 9.44045L42.5519 9.81762C42.6324 9.92268 42.777 10.0553 42.8742 10.1571C43.2143 10.5131 43.6092 10.7756 44.0186 11.0339C44.5461 11.3673 45.395 11.6297 46.0197 11.693C46.5281 11.7445 48.0165 11.7213 48.6245 11.7213H54.5509C54.8179 11.7213 54.9362 11.7193 55.0728 11.8674C55.3366 12.1521 55.1406 12.6522 54.7527 12.6522H41.0293V20.5916C41.0293 20.9562 41.3135 21.3293 41.6314 21.4489C41.7508 21.494 41.8845 21.522 42.0504 21.522H55.9321C56.8691 21.522 57.6107 21.3394 58.2618 21.0413C59.1684 20.6269 60.0088 19.9293 60.5701 19.0816C60.9017 18.5796 61.0709 18.2332 61.2811 17.6475C61.4693 17.1236 61.5854 16.37 61.5854 15.7738C61.5854 14.3944 61.1177 13.1263 60.363 12.0965C60.1233 11.77 59.8858 11.5255 59.5967 11.2448L59.2473 10.9496C59.1842 10.9001 59.128 10.8575 59.0623 10.8121C58.8951 10.6961 58.6502 10.5347 58.4689 10.441C57.0667 9.71662 56.2427 9.83062 54.6087 9.83062C52.4939 9.83062 50.3796 9.83062 48.265 9.83062C48.0527 9.83062 47.8311 9.84801 47.6768 9.78394C47.3064 9.62983 47.2866 8.89738 47.9054 8.8998C51.856 8.91642 55.8333 8.8998 59.787 8.8998H61.3983C61.4709 8.90024 61.5854 8.92416 61.5854 8.85481V0.990403C61.5854 0.465187 61.1592 0 60.6936 0L46.3805 0C45.9754 0 45.5361 0.0770581 45.2123 0.161822C44.6864 0.299716 44.0481 0.569417 43.584 0.894282C43.5427 0.923078 43.5218 0.938488 43.479 0.965255C43.1101 1.19643 42.7055 1.59713 42.4139 1.93984C42.3793 1.97999 42.3673 1.9881 42.3323 2.03474C42.0742 2.37947 42.0291 2.41314 41.7764 2.85075C41.5175 3.2993 41.3119 3.82939 41.1902 4.34041C41.1059 4.69568 41.0293 5.13289 41.0293 5.56804Z" fill="#959595"/>
<path fill-rule="evenodd" clip-rule="evenodd" d="M0 5.59805C0 6.33215 0.0606407 6.89101 0.275215 7.56224C0.326915 7.72325 0.382113 7.89195 0.446641 8.04408C0.6686 8.56888 0.923214 9.05719 1.26956 9.49679C1.45887 9.73774 1.80406 10.1482 2.03457 10.3343C2.09832 10.3863 2.14224 10.4309 2.20716 10.4844L2.76497 10.8932C3.35311 11.2793 4.13172 11.5948 4.84774 11.6767C5.51676 11.753 6.34434 11.7213 7.01994 11.7213C9.22631 11.7213 11.463 11.7347 13.6659 11.7213C13.7961 11.7205 13.8393 11.7303 13.9302 11.7761C14.3267 11.9761 14.1969 12.6522 13.7234 12.6522H0L0 20.5916C0 20.9448 0.295428 21.3342 0.602518 21.4489C0.721854 21.494 0.854798 21.522 1.02156 21.522H14.9028C15.5275 21.522 16.1592 21.4396 16.71 21.2462C17.7035 20.8978 18.3072 20.4772 19.0567 19.7022L19.2207 19.5132C19.4015 19.2779 19.5041 19.1473 19.6646 18.8955C20.4759 17.6208 20.7989 15.7921 20.3675 14.2748C20.2038 13.6997 20.2073 13.7245 19.9811 13.1924C19.9624 13.1482 19.9577 13.1234 19.9317 13.0784L19.7027 12.657C19.6211 12.513 19.5426 12.3902 19.4508 12.2595C18.998 11.6159 18.4705 11.0834 17.8147 10.6645C17.5212 10.4771 17.309 10.3587 16.9767 10.2183C16.2202 9.89832 15.6289 9.83062 14.8309 9.83062H7.23568C6.94683 9.83062 6.63897 9.87764 6.473 9.63592C6.3373 9.43798 6.363 9.15896 6.5348 9.00892C6.64054 8.91642 6.70429 8.89942 6.8905 8.8998C11.3806 8.91115 15.8805 8.88482 20.3694 8.8998C20.4413 8.90024 20.5564 8.92416 20.5564 8.85481V0.975393C20.5564 0.452613 20.1152 0 19.6643 0L5.35116 0C4.94803 0 4.49673 0.0774635 4.17137 0.164661C3.72123 0.285924 3.57507 0.363387 3.18518 0.531701C2.85516 0.674059 2.15468 1.14371 1.88102 1.42193C1.75935 1.54522 1.57432 1.70988 1.44954 1.85751L1.14906 2.23387C1.09814 2.30485 1.05071 2.36569 1.00135 2.44031L0.623508 3.08152C0.509614 3.30215 0.399217 3.57915 0.318363 3.81398C0.134886 4.34649 0 4.99459 0 5.59805Z" fill="#959595"/>
<path fill-rule="evenodd" clip-rule="evenodd" d="M100.296 1.02084V20.502C100.296 20.6642 100.33 20.8082 100.378 20.9266C100.399 20.981 100.437 21.0446 100.466 21.0896C100.504 21.1464 100.541 21.1845 100.587 21.2336C100.755 21.4093 100.986 21.5224 101.317 21.5224H108.999C109.395 21.5224 109.731 21.376 109.954 21.0641C110.052 20.9294 110.137 20.762 110.136 20.5324L110.135 18.3407C110.135 18.1237 110.11 17.8017 110.165 17.6366C110.283 17.2882 110.805 17.1901 110.994 17.6248C111.061 17.7786 111.027 18.1164 111.027 18.3257L111.027 20.5024C111.024 21.0815 111.542 21.5224 112.149 21.5224H119.845C120.285 21.5224 120.601 21.3115 120.771 20.9574C120.826 20.8418 120.866 20.7125 120.866 20.547V0.960812C120.866 0.519555 120.549 0.105469 120.133 0.105469C119.768 0.105469 119.606 0.244176 119.358 0.437632L110.596 7.33964C110.327 7.15141 109.694 6.63434 109.42 6.41978L102.38 0.888221C102.202 0.748704 101.655 0.294061 101.475 0.210511C100.853 -0.0786598 100.296 0.274185 100.296 1.02084Z" fill="#959595"/>
<path fill-rule="evenodd" clip-rule="evenodd" d="M82.2871 0.780314V20.7267C82.2871 20.9691 82.3964 21.1476 82.5425 21.3009C82.6797 21.4453 82.8784 21.522 83.1501 21.522H98.3837C98.8914 21.522 99.233 21.1659 99.233 20.6366V12.6522H89.2927C88.8255 12.6522 88.6836 11.944 89.1403 11.7574C89.3016 11.6913 89.5728 11.7213 89.7815 11.7213H98.9303C99.069 11.7213 99.233 11.7501 99.233 11.6764V9.83062H89.3789C88.7635 9.83062 88.7025 9.10948 89.154 8.92048C89.2691 8.87226 89.6501 8.8998 89.8109 8.8998H98.9303C99.069 8.8998 99.233 8.9286 99.233 8.85481V0.870351C99.233 0.582397 99.14 0.380422 98.9865 0.226713C98.8656 0.105042 98.6874 0 98.5135 0L83.0208 0C82.6408 0 82.2871 0.380422 82.2871 0.780314Z" fill="#959595"/>
<path fill-rule="evenodd" clip-rule="evenodd" d="M62.6621 1.12545V7.78936C62.6621 8.48653 63.0636 8.8998 63.7264 8.8998H66.7472V20.3065C66.7472 21.0247 67.2859 21.522 67.9844 21.522H75.8813C76.1851 21.522 76.3969 21.4542 76.6181 21.3001C76.6638 21.2689 76.667 21.2608 76.7059 21.2267C77.0328 20.9396 77.1184 20.6029 77.1184 20.1414V8.8998H80.1398C80.5787 8.8998 80.8688 8.74531 81.0832 8.36853C81.1336 8.27971 81.1893 8.10448 81.1893 7.96941V0.91537C81.1893 0.466405 80.7426 0 80.3122 0L63.5534 0C63.1924 0 62.8366 0.302958 62.721 0.661891C62.6774 0.796135 62.6621 0.948627 62.6621 1.12545Z" fill="#959595"/>
<path fill-rule="evenodd" clip-rule="evenodd" d="M21.2178 0.765309C21.2178 0.892658 21.2446 1.03339 21.2812 1.13479C21.3013 1.19075 21.3192 1.22807 21.341 1.28241C21.3857 1.39516 21.6205 1.81128 21.7021 1.97107C21.7993 2.16088 21.8942 2.34216 21.9941 2.52183L23.2986 4.98769C23.346 5.08463 23.402 5.17546 23.4475 5.26795L24.0275 6.35853C24.0791 6.45547 24.1157 6.53859 24.1693 6.63064L25.3367 8.83495C25.3837 8.93431 25.4366 9.01539 25.4851 9.11518C25.5318 9.2113 25.5823 9.28876 25.629 9.38526L26.2086 10.4767C26.2898 10.6219 26.2812 10.6174 26.2812 10.836V20.2314C26.2812 20.5324 26.2964 20.6646 26.4348 20.9266C26.4608 20.9757 26.4846 21.0069 26.5176 21.0503C26.7629 21.3776 27.0925 21.522 27.5038 21.522H35.4014C36.1486 21.522 36.6422 20.9745 36.6387 20.2914C36.6248 17.7595 36.6384 15.1882 36.6384 12.6522C36.6384 12.0868 36.6384 11.5214 36.6384 10.956C36.6384 10.456 36.6174 10.679 36.8063 10.2909L37.3867 9.20033C37.4788 9.0138 37.5794 8.83572 37.6785 8.64958C37.7303 8.55308 37.7719 8.47435 37.8224 8.37944C37.8745 8.28294 37.9111 8.19939 37.9647 8.10733C38.1478 7.79304 38.3616 7.33308 38.5435 7.01511L39.4146 5.37296C39.6004 4.99742 39.9293 4.40489 40.1388 4.01189C40.1885 3.91821 40.2286 3.82898 40.2807 3.73976C40.4638 3.42585 40.6776 2.96553 40.8591 2.64756C40.9322 2.52062 41.5417 1.37285 41.5744 1.27795C41.6622 1.02325 41.675 0.776259 41.5747 0.52278C41.5324 0.41449 41.4768 0.350819 41.4146 0.269702C41.3718 0.213735 41.2506 0.124915 41.1844 0.0896306C41.1082 0.0486682 40.9695 0 40.8532 0L32.7978 0C32.4693 0 32.137 0.253073 32.0013 0.549953C31.9115 0.746651 31.9057 0.859401 31.9057 1.14046V3.22671C31.9057 3.42787 31.9352 3.73448 31.8726 3.88292C31.6993 4.29295 31.1924 4.24428 31.0505 3.89428C30.9852 3.73367 31.0139 3.45504 31.0139 3.24172V1.15547C31.0139 0.732864 30.9564 0.444911 30.6217 0.184128C30.5098 0.0973363 30.3104 0 30.1222 0L22.0376 0C21.6236 0 21.2178 0.274974 21.2178 0.765309Z" fill="#959595"/>
<path fill-rule="evenodd" clip-rule="evenodd" d="M12.3213 29.8826H13.7312C13.8012 29.8826 13.7743 29.7277 13.7743 29.6575V25.5755L14.1292 26.4061C14.1631 26.4795 14.1848 26.5391 14.216 26.6153C14.441 27.1584 14.703 27.7437 14.9191 28.283C14.9503 28.3613 14.9732 28.4177 15.0066 28.4919C15.0703 28.6343 15.117 28.775 15.1839 28.9073H16.2198C16.2319 28.8533 16.277 28.7616 16.3014 28.7073L17.5535 25.6761C17.5636 25.6513 17.5644 25.6493 17.5761 25.6245L17.5993 29.7792C17.599 29.8352 17.5885 29.8826 17.6441 29.8826H19.0536V23.0391H17.0828C17.0731 23.084 17.0567 23.1076 17.0416 23.1461L15.6877 26.5658L14.3384 23.0808C14.3221 23.0496 14.3365 23.0391 14.2921 23.0391H12.3213V29.8826Z" fill="#959595"/>
<path fill-rule="evenodd" clip-rule="evenodd" d="M8.5936 28.4645C7.5005 28.4645 6.73782 27.6404 6.73782 26.4983C6.73782 26.1556 6.78018 25.8928 6.8855 25.617C6.98541 25.3562 7.05189 25.2832 7.19221 25.0962C7.21713 25.063 7.21634 25.0606 7.24472 25.0309C7.87559 24.3654 8.93252 24.2883 9.68432 24.82C10.0727 25.095 10.3012 25.5484 10.393 26.0315L10.4357 26.4833L10.3906 26.9177C10.3176 27.2896 10.1749 27.6343 9.92066 27.8979C9.56886 28.263 9.1203 28.4645 8.5936 28.4645ZM5.12695 26.4683C5.12695 27.6055 5.61131 28.7537 6.51935 29.3827C6.69115 29.5019 6.85718 29.6159 7.06046 29.7039C7.69522 29.9789 8.04545 30.0251 8.73739 30.0251C9.12298 30.0251 9.72905 29.8917 10.0801 29.7153C10.1834 29.6629 10.2565 29.6317 10.3494 29.5758C10.5038 29.4829 10.7035 29.3592 10.8407 29.2334L11.2548 28.8096C11.446 28.5509 11.5984 28.3558 11.7313 28.0164C11.9937 27.3475 12.0314 27.0345 12.0314 26.3032C12.0314 25.806 11.8717 25.2033 11.7103 24.8671C11.6396 24.7199 11.5712 24.5779 11.4853 24.4421L11.2081 24.0705C11.1681 24.0235 11.1529 23.9976 11.1074 23.9505L10.8909 23.7412C10.7626 23.6281 10.6514 23.5506 10.5154 23.4577C10.0085 23.1118 9.51173 22.997 8.92049 22.9155L8.50919 22.8984C8.17841 22.9378 8.14146 22.905 7.75313 22.995C7.51411 23.0506 7.31041 23.115 7.10786 23.2071C5.84843 23.7786 5.12695 25.0111 5.12695 26.4683Z" fill="#959595"/>
<path fill-rule="evenodd" clip-rule="evenodd" d="M80.0307 26.5648V26.3697C80.0307 25.574 80.4564 24.9215 81.0808 24.629C81.5522 24.4084 82.175 24.4088 82.6532 24.6246C83.0495 24.8034 83.3795 25.1344 83.5467 25.5529C83.7112 25.9629 83.7133 26.1512 83.7133 26.5798C83.7133 27.1882 83.4105 27.7981 82.9397 28.1291C82.2359 28.6235 81.1654 28.5517 80.5594 27.9194C80.5148 27.8732 80.499 27.8464 80.4585 27.7993C80.201 27.4984 80.0307 26.9858 80.0307 26.5648ZM82.0016 30.0166H81.7009C81.2358 29.9988 80.7765 29.8957 80.3618 29.7015C79.3964 29.2501 78.7063 28.368 78.5003 27.2766C78.4394 26.9558 78.4199 26.7558 78.4199 26.3997C78.4199 25.834 78.5786 25.166 78.7841 24.7686C78.9749 24.3987 78.9917 24.3999 79.2109 24.1034C79.2713 24.0215 79.3438 23.9574 79.4158 23.882C79.7023 23.5831 80.0497 23.3458 80.4501 23.1751C80.8038 23.0238 81.2836 22.9074 81.6857 22.9033C81.7671 22.9025 81.7861 22.8867 81.8717 22.8867L82.2764 22.9163C82.6333 22.9524 82.9906 23.0412 83.3044 23.1795C83.8515 23.42 84.3917 23.8382 84.7234 24.3557C84.7854 24.4526 84.8322 24.5277 84.8884 24.6335C85.4103 25.6069 85.4739 26.9586 85.0366 27.9754C85.0145 28.0261 84.9888 28.0772 84.9667 28.1275C84.8269 28.4463 84.5883 28.7663 84.3571 29.0075C84.0827 29.2935 83.728 29.5514 83.3622 29.7104C82.9391 29.8942 82.4719 29.9984 82.0016 30.0166Z" fill="#959595"/>
<path fill-rule="evenodd" clip-rule="evenodd" d="M105.241 28.4871H103.99V27.016H105.112C106.25 27.016 106.21 27.9708 105.819 28.2944C105.693 28.3986 105.462 28.4871 105.241 28.4871ZM105.227 25.7556H103.99V24.4196H105.198C105.432 24.4196 105.625 24.4618 105.761 24.5672C106.186 24.8962 106.097 25.7556 105.227 25.7556ZM102.537 29.8376C102.537 29.8725 102.547 29.8826 102.58 29.8826H105.126C105.486 29.8826 105.801 29.8571 106.094 29.7967C106.757 29.6592 107.337 29.2272 107.508 28.5114C107.644 27.944 107.576 27.1462 107.201 26.7569C107.066 26.617 106.969 26.5326 106.785 26.4405C106.599 26.3473 106.451 26.3185 106.234 26.2658L106.252 26.2548C106.256 26.2532 106.282 26.2414 106.282 26.2414C106.509 26.1465 106.694 26.0751 106.898 25.9081C106.97 25.8484 107.013 25.8046 107.079 25.7365C107.678 25.1143 107.58 23.9755 106.883 23.4418C106.543 23.1814 106.031 23.0391 105.442 23.0391H102.537V29.8376Z" fill="#959595"/>
<path fill-rule="evenodd" clip-rule="evenodd" d="M115.061 29.8826H116.24C116.319 29.8826 116.383 29.7536 116.46 29.647C116.529 29.5509 116.592 29.4689 116.66 29.3748C116.793 29.1883 116.922 29.0147 117.056 28.8278L119.368 25.6416C119.38 25.6249 119.382 25.6221 119.393 25.6079C119.403 25.5954 119.412 25.5852 119.419 25.5755L119.418 29.7792C119.417 29.8352 119.407 29.8826 119.463 29.8826H120.872V23.0391H119.679C119.625 23.0391 119.503 23.2374 119.469 23.2856L116.513 27.3462V23.0391H115.061V29.8826Z" fill="#959595"/>
<path fill-rule="evenodd" clip-rule="evenodd" d="M26.3594 28.0669C26.3594 28.3459 26.1865 28.4871 25.9279 28.4871H25.5684V29.8676C25.5684 29.9382 25.6566 29.913 25.8272 29.913C26.6125 29.913 27.3615 29.8335 27.6624 29.0812C27.7425 28.8813 27.8121 28.5966 27.8121 28.322V24.4646H30.1572V29.8826H31.6099V23.0391H26.3594V28.0669Z" fill="#959595"/>
<path fill-rule="evenodd" clip-rule="evenodd" d="M72.3682 29.8376C72.3682 29.8725 72.3781 29.8826 72.4118 29.8826H73.7924C73.8255 29.8826 73.8355 29.8725 73.8355 29.8376V24.4646H76.5258V29.8376C76.5258 29.8725 76.5358 29.8826 76.5689 29.8826H77.95C77.9831 29.8826 77.9931 29.8725 77.9931 29.8376V23.0391H72.3682V29.8376Z" fill="#959595"/>
<path fill-rule="evenodd" clip-rule="evenodd" d="M47.9473 29.8376C47.9473 29.8725 47.957 29.8826 47.9904 29.8826H49.3711C49.4046 29.8826 49.4143 29.8725 49.4143 29.8376V27.016H52.119V29.8376C52.119 29.8725 52.1287 29.8826 52.1618 29.8826H53.5719V23.0391H52.119V25.5755H49.4143V23.084C49.4143 23.0496 49.4046 23.0391 49.3711 23.0391H47.9473V29.8376Z" fill="#959595"/>
<path fill-rule="evenodd" clip-rule="evenodd" d="M19.5391 29.8826H20.9921V24.4646H23.6964V29.8376C23.6964 29.8725 23.7066 29.8826 23.7396 29.8826H25.1495V23.0391H19.5391V29.8826Z" fill="#959595"/>
<path fill-rule="evenodd" clip-rule="evenodd" d="M108.379 29.8376C108.379 29.8725 108.389 29.8826 108.422 29.8826H109.832V26.6259L110.519 27.4403C110.684 27.6135 111.119 28.1861 111.317 28.4084L111.484 28.6091C111.506 28.6379 111.523 28.6513 111.546 28.6801C111.719 28.9048 111.946 29.1538 112.117 29.3748C112.137 29.4012 112.151 29.4105 112.172 29.4369L112.458 29.7841C112.511 29.8559 112.511 29.8838 112.621 29.8838C113.279 29.8838 113.936 29.8826 114.593 29.8826C114.58 29.8299 114.585 29.8567 114.555 29.8173L112.137 27.042C112.099 27.0002 112.064 26.9726 112.03 26.9285L111.54 26.3595C111.503 26.3173 111.458 26.2954 111.443 26.2358C111.469 26.1948 111.493 26.1794 111.526 26.142C111.562 26.1019 111.572 26.0792 111.612 26.037L112.533 24.9416C112.568 24.9002 112.59 24.884 112.623 24.8398L114.133 23.0391H112.148C112.136 23.0861 112.112 23.0999 112.084 23.1376L110.132 25.6635C110.08 25.7316 109.881 26.0062 109.832 26.0407V23.0391H108.379V29.8376Z" fill="#959595"/>
<path fill-rule="evenodd" clip-rule="evenodd" d="M36.6865 29.8826H38.1396V26.6259C38.1932 26.6636 38.3701 26.8964 38.4237 26.9597L39.1716 27.8605C39.1992 27.8913 39.1981 27.8969 39.2226 27.9274C39.2455 27.9557 39.263 27.9675 39.2859 27.9963C39.3104 28.0264 39.3096 28.032 39.3372 28.0628L39.9701 28.8285C40.0124 28.876 40.0435 28.9158 40.0847 28.9636C40.1104 28.9936 40.11 29.0009 40.1357 29.0309L40.8249 29.8579C40.8669 29.8932 40.8583 29.8838 40.929 29.8838C41.5863 29.8838 42.2437 29.8826 42.901 29.8826C42.8898 29.8396 42.6693 29.5922 42.6243 29.5411L42.0272 28.8582C41.986 28.8131 41.958 28.79 41.9226 28.7422L40.0416 26.5926C39.9961 26.5412 39.7621 26.28 39.7508 26.2358L40.5018 25.339C40.5403 25.2957 40.5535 25.2867 40.5908 25.2364L41.0985 24.6406C41.219 24.4902 41.8612 23.7119 42.0198 23.5456L42.2763 23.2427C42.3347 23.164 42.3879 23.1214 42.4408 23.0391H40.4556C40.4218 23.1056 40.3673 23.1644 40.3199 23.2276C40.2674 23.297 40.2251 23.3505 40.1722 23.4191L38.2916 25.8541C38.2566 25.9003 38.1749 26.0159 38.1396 26.0407V23.0391H36.6865V29.8826Z" fill="#959595"/>
<path fill-rule="evenodd" clip-rule="evenodd" d="M0 29.8826H1.4099C1.47248 29.8826 1.45421 29.8023 1.45343 29.733C1.44021 28.7284 1.45304 27.6333 1.45304 26.6259L1.90979 27.1702C1.95333 27.2177 1.98054 27.2557 2.02485 27.3048L2.31211 27.6508C2.33855 27.684 2.33972 27.6921 2.37003 27.7254C2.39841 27.7562 2.39686 27.7554 2.4229 27.7903L2.5955 28.0004C2.61882 28.0316 2.62581 28.0364 2.65069 28.0628C2.68179 28.0961 2.68218 28.1042 2.70861 28.1374L2.82328 28.2733C2.85166 28.3042 2.85166 28.3086 2.87498 28.339L3.50821 29.1048C3.52843 29.1311 3.54164 29.1412 3.56419 29.166L3.84912 29.514C3.89227 29.5719 3.91909 29.5935 3.96224 29.6514C3.98556 29.6827 3.99372 29.6872 4.01705 29.7143C4.13211 29.8494 4.11151 29.8838 4.2429 29.8838C4.89984 29.8826 5.55717 29.8826 6.21448 29.8826C6.19971 29.825 6.15967 29.8076 6.12472 29.7662L5.43435 28.9709C5.39042 28.9259 5.37681 28.9092 5.33907 28.8598L4.44853 27.8377C4.4151 27.7984 4.38167 27.7733 4.34863 27.7323L4.1531 27.5007C4.11812 27.4569 4.08157 27.431 4.04659 27.3872L3.04991 26.2507L5.06777 23.8539C5.149 23.7532 5.72041 23.1145 5.73986 23.0391H3.76905C3.72434 23.1084 3.68275 23.1571 3.63144 23.2256L3.19568 23.7914C3.00287 24.0436 2.80696 24.287 2.61843 24.5401L1.45304 26.0407V23.0391H0L0 29.8826Z" fill="#959595"/>
<path fill-rule="evenodd" clip-rule="evenodd" d="M98.6894 24.7497C98.7441 24.7915 98.8781 25.2636 98.9039 25.337C98.938 25.4368 98.9706 25.5402 99.0042 25.6371L99.5098 27.1365H97.9127C97.9179 27.072 98.2695 26.0431 98.2995 25.9486C98.3352 25.8359 98.6831 24.8313 98.6894 24.7497ZM95.3953 29.8826H96.9488C97.0087 29.8826 97.0749 29.6162 97.0944 29.5545L97.395 28.6671C97.4171 28.6103 97.4381 28.5507 97.4528 28.4871H99.9702C99.9802 28.6136 100.388 29.6936 100.43 29.8826L101.927 29.8834C102.094 29.8855 102.071 29.915 101.947 29.5914C101.144 27.5019 100.37 25.3861 99.5671 23.2942C99.5351 23.2102 99.5056 23.1161 99.4662 23.0391H97.9274C97.9232 23.0938 97.8748 23.1988 97.8554 23.2491L95.4999 29.4819C95.4704 29.559 95.4463 29.6174 95.4189 29.6969C95.4021 29.746 95.3953 29.7618 95.3774 29.8064C95.3627 29.8421 95.3333 29.8826 95.3953 29.8826Z" fill="#959595"/>
<path fill-rule="evenodd" clip-rule="evenodd" d="M32.1104 23.084V29.8376C32.1104 29.8725 32.1204 29.8826 32.1535 29.8826H36.1814C36.2145 29.8826 36.2246 29.8725 36.2246 29.8376V28.4571H33.5778V26.911H35.9081V25.5305H33.5778V24.4646H36.167V23.0391H32.1535C32.1204 23.0391 32.1104 23.0496 32.1104 23.084Z" fill="#959595"/>
<path fill-rule="evenodd" clip-rule="evenodd" d="M61.4443 23.084V29.8376C61.4443 29.8725 61.4543 29.8826 61.4874 29.8826H65.5153C65.5484 29.8826 65.5583 29.8725 65.5583 29.8376V28.4571H62.9117V26.911H65.242V25.5305H62.9117V24.4646H65.5011V23.0391H61.4874C61.4543 23.0391 61.4443 23.0496 61.4443 23.084Z" fill="#959595"/>
<path fill-rule="evenodd" clip-rule="evenodd" d="M56.6576 28.5021H55.5791V26.836H56.4132C56.8131 26.836 57.233 26.8713 57.4306 27.2156C57.6535 27.605 57.6125 28.5021 56.6576 28.5021ZM54.126 29.8826H56.6145C57.324 29.8826 57.8674 29.7942 58.3924 29.3663C58.5779 29.2151 58.7818 28.9291 58.8754 28.6846C58.9306 28.5398 58.9731 28.4161 59.0062 28.236C59.073 27.8755 59.0761 27.5462 59.0173 27.1811C58.9511 26.7736 58.7703 26.3355 58.4812 26.0593C58.0623 25.6582 57.4743 25.4704 56.8877 25.4704H55.5791V23.0391H54.126V29.8826Z" fill="#959595"/>
<path fill-rule="evenodd" clip-rule="evenodd" d="M42.2812 26.3258C42.2812 26.9581 42.3392 27.4833 42.5875 28.002C42.9708 28.801 43.5127 29.2792 44.3298 29.6065C44.6808 29.7472 45.2422 29.8676 45.7191 29.8676H47.4163V28.307H45.9636C45.3277 28.307 44.8647 28.1703 44.4981 27.8848C44.2248 27.6718 44.0329 27.3527 43.9466 27.0047C43.8467 26.6012 43.875 26.1132 44.0017 25.7344C44.2493 24.9935 45.0206 24.6147 45.7479 24.6147H47.4163V23.0391H45.8773C44.8017 23.0391 43.9197 23.3834 43.3355 23.8988C43.1318 24.0785 43.1601 24.0797 43.0256 24.2209C42.9409 24.3097 42.8154 24.4938 42.7551 24.5993L42.6024 24.8901C42.4305 25.2482 42.2812 25.7949 42.2812 26.3258Z" fill="#959595"/>
<path fill-rule="evenodd" clip-rule="evenodd" d="M85.7158 26.3059C85.7158 26.9763 85.7757 27.4858 86.0375 28.0272C86.6881 29.3741 87.9673 29.8778 89.4131 29.8778H90.7222C90.7548 29.8778 90.7653 29.8677 90.7653 29.8328V28.3022H89.226C88.8812 28.3022 88.5454 28.2182 88.3052 28.1075C87.3829 27.6824 87.1416 26.658 87.4296 25.7523C87.5169 25.4782 87.6777 25.2519 87.8837 25.0706L88.0409 24.9493C88.1092 24.9014 88.1475 24.8795 88.2237 24.8398C88.8024 24.5385 89.5376 24.6099 90.2476 24.6099C90.3386 24.6099 90.4295 24.6099 90.5204 24.6099C90.6486 24.6099 90.7653 24.6366 90.7653 24.5649V23.0792C90.7653 23.0448 90.7548 23.0342 90.7222 23.0342C89.2565 23.0342 87.9583 22.8931 86.7785 23.8871C86.7359 23.9228 86.7201 23.9468 86.6718 23.9861C86.5756 24.0635 86.5288 24.1435 86.4679 24.2088C86.2981 24.3905 86.1536 24.6427 86.0422 24.8751C85.8514 25.2726 85.7158 25.8306 85.7158 26.3059Z" fill="#959595"/>
<path fill-rule="evenodd" clip-rule="evenodd" d="M91.2803 24.4646H92.9058V29.8826H94.3584V24.4646H96.0849V23.0391H91.2803V24.4646Z" fill="#959595"/>
<path fill-rule="evenodd" clip-rule="evenodd" d="M59.4395 29.8826H60.8495C60.8826 29.8826 60.8926 29.8725 60.8926 29.8376V23.0391H59.4395V29.8826Z" fill="#959595"/>
</svg>
