<svg width="140" height="25" viewBox="0 0 140 25" fill="none" xmlns="http://www.w3.org/2000/svg">
<path d="M36.7412 0C43.7965 2.06271e-05 49.0225 5.41316 49.0225 12.0957V12.1621C49.0225 18.8781 43.7311 24.3242 36.6758 24.3242C29.6207 24.3242 24.3948 18.9118 24.3945 12.2295V12.1621C24.3946 5.44621 29.686 0 36.7412 0ZM82.6729 0C86.7229 7.68849e-05 89.4995 1.23665 91.9492 3.375L88.2256 7.98535C86.5598 6.5486 85.0242 5.78027 82.7051 5.78027C79.4388 5.78031 76.8585 8.58703 76.8584 12.1621V12.2295C76.8586 16.0383 79.439 18.7441 83.0645 18.7441C84.6323 18.7441 85.8081 18.4102 86.7227 17.7754V14.9355H82.248V10.1904H92.7324V20.6826C90.2827 22.7875 87.0162 24.3242 82.8027 24.3242C75.6498 24.324 70.3908 19.3461 70.3906 12.2295V12.1621C70.3907 5.34597 75.6176 0 82.6729 0ZM12.249 15.2695L12.2773 15.1885L22.0059 6.54297L15.123 24.0234H9.24414L0 0.467773H7.05566L12.249 15.2695ZM58.627 18.1768H69.7002V23.8564H52.291V0.467773H58.627V18.1768ZM114.636 5.94727H102.518V9.52246H113.492V14.6348H102.518V18.3438H114.799V23.8564H96.2461V0.467773H114.636V5.94727ZM128.876 0.467773C132.403 0.467847 134.788 1.40329 136.323 2.97363C137.662 4.34352 138.348 6.1814 138.348 8.41992V8.4873C138.348 12.0956 136.519 14.4679 133.645 15.7041L139.1 23.8564H131.815L127.21 16.7734H124.4V23.8564H118.064V0.467773H128.876ZM36.6758 5.84766C33.1808 5.84769 30.8613 8.72103 30.8613 12.0957V12.1621C30.8613 15.5034 33.2462 18.4775 36.7412 18.4775C40.2034 18.4775 42.5223 15.604 42.5225 12.2295V12.1621C42.5224 8.75407 40.1707 5.84766 36.6758 5.84766ZM24.0049 1.46777L13.4805 11.7783L17.4746 0.467773H24.3994L24.0049 1.46777ZM124.4 11.6943H128.614C130.737 11.6943 132.012 10.6249 132.012 8.9209V8.85449C132.012 6.98351 130.672 6.04798 128.582 6.04785H124.4V11.6943Z" fill="#959595"/>
</svg>
