<svg width="22" height="26" viewBox="0 0 22 26" fill="none" xmlns="http://www.w3.org/2000/svg">
<path d="M1.73726 16.0961C1.44772 16.0961 1.17521 16.0785 0.919729 16.0433C0.664248 16.0081 0.476896 15.9788 0.357672 15.9553L0.178836 15.9026C0.059612 15.8791 0 15.8322 0 15.7618L0.051096 15.6563C1.44772 13.3577 3.35531 10.7718 5.77385 7.89851C5.80792 7.8516 6.10598 7.49391 6.66803 6.82544C7.23009 6.15697 7.58776 5.73478 7.74105 5.55886C7.89434 5.37122 8.22646 4.99008 8.73742 4.41543C9.24838 3.82905 9.64863 3.3834 9.93818 3.07848C10.2277 2.76184 10.5939 2.37483 11.0367 1.91746C11.4796 1.46008 11.9054 1.04962 12.3141 0.686062C12.8421 0.228687 13.2083 0 13.4127 0C13.4979 0 13.5404 0.04691 13.5404 0.14073C13.5404 0.351826 13.2509 0.850248 12.6718 1.63599C11.8202 2.87912 10.8324 4.16915 9.70825 5.50609C7.47705 8.17997 6.08043 9.86874 5.51837 10.5724V10.6428C5.51837 10.7014 5.5354 10.7307 5.56947 10.7307C5.5865 10.7307 5.6376 10.7014 5.72276 10.6428C5.94417 10.4434 6.23372 10.1971 6.59139 9.90392C6.96609 9.61073 7.57924 9.21786 8.43085 8.7253C9.28245 8.23275 9.97224 7.98647 10.5002 7.98647C10.926 7.98647 11.1389 8.21516 11.1389 8.67253C11.1389 9.38791 10.7898 10.2264 10.0915 11.1881C9.6827 11.751 9.19729 12.3081 8.63523 12.8593C8.07317 13.3987 7.43447 13.9206 6.71913 14.4249C6.00378 14.9175 5.2118 15.3221 4.34316 15.6387C3.47453 15.9436 2.6059 16.0961 1.73726 16.0961ZM8.50749 10.2909C8.71187 9.95083 8.81406 9.69869 8.81406 9.5345C8.81406 9.38205 8.72891 9.30582 8.55859 9.30582C8.42233 9.30582 8.21795 9.37618 7.94543 9.51691C7.68995 9.65765 7.46854 9.79838 7.28118 9.93911L6.97461 10.1502C5.96972 10.9594 5.06702 11.8097 4.26652 12.7009C3.46601 13.5805 2.92099 14.2607 2.63145 14.7415L2.17158 15.4628C2.13752 15.498 2.12049 15.5332 2.12049 15.5683C2.12049 15.627 2.24823 15.6563 2.50371 15.6563C3.25311 15.6563 4.18987 15.1755 5.31399 14.2138C6.4381 13.2404 7.5026 11.9328 8.50749 10.2909Z" fill="#959595"/>
<path d="M14.8198 13.2815L15.8929 11.839C15.8929 11.8038 15.8758 11.7862 15.8418 11.7862C15.8077 11.7862 15.7651 11.8038 15.714 11.839C15.0838 12.3433 14.4196 12.8417 13.7213 13.3342C13.023 13.8151 12.4865 14.1728 12.1118 14.4073L11.5497 14.7591C10.2723 15.5918 9.3696 16.0081 8.84161 16.0081C8.60316 16.0081 8.48394 15.9026 8.48394 15.6915C8.48394 15.4569 8.62019 15.1051 8.8927 14.636C9.16522 14.1552 9.43773 13.7388 9.71024 13.387L10.119 12.8417C11.5497 11.0005 12.6057 9.76906 13.287 9.1475C13.6276 8.84258 14.0449 8.59044 14.5388 8.39107C15.0327 8.17997 15.416 8.07442 15.6885 8.07442C15.8588 8.07442 15.944 8.11547 15.944 8.19756C15.944 8.24447 15.9099 8.30898 15.8418 8.39107C15.8077 8.43798 15.4585 8.83085 14.7943 9.56969C14.13 10.2968 13.5935 10.9242 13.1848 11.452C12.0607 12.871 11.4986 13.6861 11.4986 13.8972C11.4986 13.9793 11.5497 14.0203 11.6519 14.0203C11.8052 14.0203 12.0692 13.9147 12.4439 13.7037C13.551 13.0469 14.7687 12.1615 16.0972 11.0474C16.8296 10.5079 17.5961 9.80424 18.3966 8.9364C18.618 8.70185 18.9416 8.50248 19.3674 8.33829C19.8102 8.16238 20.2105 8.07442 20.5681 8.07442C20.7214 8.07442 20.7981 8.12134 20.7981 8.21516L20.5937 8.54939C20.3552 8.84258 19.8187 9.4876 18.9842 10.4844C18.1666 11.4696 17.7068 12.0266 17.6046 12.1556C17.4683 12.3315 17.1532 12.7127 16.6593 13.2991C16.1824 13.8737 15.8418 14.2842 15.6374 14.5304C16.7104 13.9323 17.5961 13.4163 18.2944 12.9824C19.0438 12.4429 19.9209 11.7803 20.9258 10.9946C20.9769 10.9594 21.0195 10.9418 21.0536 10.9418C21.0876 10.9418 21.1047 10.9653 21.1047 11.0122C21.1047 11.235 20.9769 11.452 20.7214 11.6631C19.972 12.226 19.3248 12.7068 18.7798 13.1055C18.0644 13.6216 16.787 14.3721 14.9476 15.3572L14.2833 16.2016C10.9962 20.3649 8.7309 23.074 7.48756 24.3288C7.36834 24.4578 7.21505 24.6103 7.0277 24.7862C6.84035 24.9738 6.53377 25.2201 6.10797 25.525C5.68217 25.8417 5.34153 26 5.08605 26C4.67728 26 4.4729 25.5954 4.4729 24.7862C4.4729 23.59 5.09457 22.2882 6.3379 20.8809C7.68343 19.3681 9.76134 17.8142 12.5716 16.2192C13.1337 15.5156 13.8831 14.5363 14.8198 13.2815ZM6.9766 20.8457C6.84035 20.9865 6.67854 21.1682 6.49119 21.3911C6.30384 21.6256 6.04836 22.0185 5.72475 22.5697C5.40114 23.1326 5.23934 23.6017 5.23934 23.977C5.23934 24.1764 5.29043 24.276 5.39263 24.276C5.47779 24.276 5.60553 24.2174 5.77585 24.1001C5.94617 23.9946 6.09094 23.8832 6.21016 23.7659L6.389 23.59C8.07517 21.7722 9.90611 19.6026 11.8818 17.0812C9.66766 18.4181 8.03259 19.673 6.9766 20.8457Z" fill="#959595"/>
</svg>
