<svg width="18" height="12" viewBox="0 0 18 12" fill="none" xmlns="http://www.w3.org/2000/svg">
<path d="M0.574005 1.286L8.07401 5.315C8.32601 5.45 8.65201 5.514 8.98001 5.514C9.30801 5.514 9.63401 5.45 9.88601 5.315L17.386 1.286C17.875 1.023 18.337 0 17.44 0H0.521005C-0.375995 0 0.0860054 1.023 0.574005 1.286ZM17.613 2.51724L9.88601 6.54424C9.54601 6.72224 9.30801 6.74324 8.98001 6.74324C8.65201 6.74324 8.41401 6.72224 8.07401 6.54424C7.73401 6.36624 0.941001 2.80524 0.386001 2.51624C-0.00399867 2.31224 1.61646e-06 2.55124 1.61646e-06 2.73524V10.0282C1.61646e-06 10.4482 0.566001 11.0282 1 11.0282H17C17.434 11.0282 18 10.4482 18 10.0282V2.73624C18 2.55224 18.004 2.31324 17.613 2.51724Z" fill="#ADADAD"/>
</svg>
