<svg width="16" height="17" viewBox="0 0 16 17" fill="none" xmlns="http://www.w3.org/2000/svg">
<path d="M15.2275 13.0366L14.99 16.1707C14.9731 16.3951 14.8717 16.6048 14.7063 16.7573C14.5409 16.9099 14.3237 16.9941 14.0987 16.9928C13.7096 16.9907 13.3925 16.9803 13.1473 16.9617C5.31505 16.3681 -0.55227 9.53795 0.0414172 1.70531C0.0599595 1.46068 0.0975109 1.14558 0.154072 0.76001C0.186746 0.537348 0.302657 0.335368 0.478414 0.194826C0.654172 0.0542835 0.876693 -0.0143581 1.10108 0.00275153L4.23502 0.240294C4.34497 0.248515 4.44793 0.297312 4.52391 0.377204C4.59989 0.457097 4.64346 0.562381 4.64617 0.672605C4.65085 0.877396 4.6574 1.04192 4.66581 1.16617C4.74875 2.40881 5.01909 3.63178 5.46766 4.79359C5.53842 4.97724 5.46741 5.18491 5.29928 5.28627L3.28306 6.50805C4.24618 9.32158 6.25302 11.6577 8.88908 13.034L10.3987 11.2282C10.4602 11.1542 10.5458 11.1042 10.6406 11.0871C10.7353 11.0699 10.833 11.0868 10.9165 11.1347C11.9974 11.7522 13.1653 12.2029 14.3808 12.4714C14.5023 12.4985 14.6634 12.5297 14.8639 12.5651C14.9723 12.5846 15.0696 12.6436 15.1369 12.7307C15.2043 12.8178 15.236 12.9268 15.2275 13.0366Z" fill="#ADADAD"/>
</svg>
