<svg width="14" height="14" viewBox="0 0 14 14" fill="none" xmlns="http://www.w3.org/2000/svg">
<path d="M11.9648 6.53223C11.9647 3.53198 9.5325 1.09961 6.53223 1.09961C3.53206 1.09974 1.09974 3.53206 1.09961 6.53223C1.09961 9.5325 3.53198 11.9647 6.53223 11.9648C6.83594 11.9648 7.08275 12.211 7.08301 12.5146C7.08301 12.8185 6.8361 13.0654 6.53223 13.0654C2.92424 13.0653 0 10.1402 0 6.53223C0.000128848 2.92432 2.92432 0.000128845 6.53223 0C10.1402 0 13.0653 2.92424 13.0654 6.53223C13.0654 6.8361 12.8185 7.08301 12.5146 7.08301C12.211 7.08275 11.9648 6.83594 11.9648 6.53223Z" fill="white"/>
<path d="M8.37598 6.53291C8.37598 5.98715 8.33227 5.47079 8.25879 4.98897H4.80859C4.73511 5.47081 4.69043 5.98713 4.69043 6.53291C4.69045 7.07848 4.73514 7.59421 4.80859 8.07588H6.5332C6.83707 8.07588 7.08398 8.32279 7.08398 8.62666C7.08388 8.93045 6.83701 9.17647 6.5332 9.17647H5.04004C5.18743 9.73139 5.36386 10.2225 5.54297 10.6374C5.75595 11.1308 5.96799 11.516 6.125 11.7751C6.20345 11.9045 6.26785 12.0024 6.31152 12.0661C6.33335 12.098 6.35081 12.1209 6.36133 12.1355C6.36654 12.1427 6.36998 12.1483 6.37207 12.1511L6.37305 12.1521C6.55684 12.394 6.50957 12.7397 6.26758 12.9235C6.0256 13.107 5.6798 13.059 5.49609 12.8171V12.8161C5.49563 12.8155 5.49477 12.815 5.49414 12.8142C5.49268 12.8122 5.49053 12.8094 5.48828 12.8064C5.4836 12.8 5.47663 12.7909 5.46875 12.78C5.45305 12.7583 5.43128 12.7276 5.4043 12.6882C5.34987 12.6088 5.27427 12.4934 5.18457 12.3454C5.0051 12.0493 4.76789 11.6189 4.53223 11.073C4.30462 10.5456 4.07886 9.90754 3.9043 9.17647H0.927734C0.623928 9.17647 0.378036 8.93044 0.37793 8.62666C0.37793 8.32279 0.623863 8.07588 0.927734 8.07588H3.69727C3.63054 7.5906 3.58986 7.07522 3.58984 6.53291C3.58984 5.99039 3.63051 5.47443 3.69727 4.98897H0.927734C0.623863 4.98897 0.37793 4.74206 0.37793 4.43819C0.378155 4.13451 0.624002 3.88838 0.927734 3.88838H3.9043C4.07888 3.15731 4.30462 2.5192 4.53223 1.9919C4.76784 1.44607 5.00512 1.01653 5.18457 0.720413C5.2743 0.572353 5.34984 0.45713 5.4043 0.37764C5.43145 0.338002 5.45299 0.306665 5.46875 0.284866C5.47655 0.274076 5.48361 0.265778 5.48828 0.259476C5.49058 0.256376 5.49265 0.253649 5.49414 0.251663C5.49489 0.250662 5.49556 0.249443 5.49609 0.248734V0.247757H5.49707V0.24678C5.68078 0.00506011 6.02566 -0.0420669 6.26758 0.141312C6.50926 0.324865 6.55601 0.668899 6.37305 0.910843C6.37282 0.91114 6.37312 0.913329 6.37207 0.914749C6.36996 0.917599 6.36633 0.922478 6.36133 0.929398C6.3508 0.943957 6.33336 0.967839 6.31152 0.99971C6.26784 1.06348 6.20328 1.16157 6.125 1.29073C5.96797 1.54986 5.75588 1.93518 5.54297 2.42842C5.36392 2.84324 5.18739 3.33366 5.04004 3.88838H8.02734C7.88001 3.33368 7.70345 2.84323 7.52441 2.42842C7.31143 1.93502 7.09845 1.54986 6.94141 1.29073C6.86302 1.16139 6.79857 1.06348 6.75488 0.99971C6.73305 0.967839 6.71658 0.943957 6.70605 0.929398C6.70109 0.922532 6.69746 0.917652 6.69531 0.914749L6.69336 0.91182C6.51009 0.669858 6.55703 0.324953 6.79883 0.141312C7.04082 -0.0424244 7.38654 0.00481039 7.57031 0.24678L7.39844 0.37764L7.57031 0.247757L7.57129 0.248734C7.57181 0.24943 7.57252 0.250694 7.57324 0.251663C7.57471 0.253619 7.57688 0.256477 7.5791 0.259476C7.58375 0.265745 7.58996 0.274222 7.59766 0.284866C7.61342 0.306676 7.63585 0.337883 7.66309 0.37764C7.71754 0.457123 7.79315 0.572472 7.88281 0.720413C8.06224 1.0165 8.29864 1.44625 8.53418 1.9919C8.76178 2.51918 8.98752 3.15734 9.16211 3.88838H12.1396C12.4432 3.8886 12.6892 4.13464 12.6895 4.43819C12.6895 4.74192 12.4433 4.98875 12.1396 4.98897H9.36914C9.4359 5.47445 9.47656 5.99036 9.47656 6.53291C9.47636 6.83654 9.23041 7.08261 8.92676 7.08272C8.62301 7.08272 8.37618 6.83661 8.37598 6.53291Z" fill="white"/>
<path d="M8.60494 7.656C8.8959 7.45255 9.2626 7.47053 9.54928 7.64721L9.5483 7.64819L12.7299 9.60424C13.0545 9.80395 13.217 10.1514 13.2036 10.4792C13.1895 10.8194 12.9616 11.2226 12.478 11.2781H12.477L11.2378 11.4177L10.6831 12.5339L10.6821 12.533C10.4651 12.9693 10.0101 13.0466 9.68502 12.9431C9.3724 12.8435 9.10081 12.5727 9.02389 12.1999V12.199L8.27291 8.54076L8.25533 8.41674C8.23442 8.12556 8.35007 7.83432 8.60494 7.656ZM9.99361 11.4499L10.3872 10.6599L10.52 10.3923L10.8178 10.3581L11.6948 10.2585L9.46724 8.88842L9.99361 11.4499Z" fill="white"/>
</svg>
