<svg width="235" height="206" viewBox="0 0 235 206" fill="none" xmlns="http://www.w3.org/2000/svg">
<path d="M113.874 57.1303L107.603 66.8592H122.34L96.001 108.913L101.959 118.328L140.213 57.1303H113.874Z" fill="white"/>
<path d="M146.174 47.0898H134.885L148.682 25.1213H127.987L91.6137 83.1809L99.1392 94.7928L93.1816 104.208L80.012 83.1809L122.506 15.3924H165.928L146.174 47.0898Z" fill="white"/>
<path d="M84.7152 15.3965H73.1135L61.5117 34.5405L46.4608 10.3751H189.444L160.597 57.1366H145.86L139.902 66.8655L146.8 78.4774L111.995 134.654L117.953 144.069L158.716 78.4774L151.19 66.8655H165.927L207.004 0.64624H28.5879L61.5117 53.0567L84.7152 15.3965Z" fill="white"/>
<path d="M102.289 15.3924H90.6877L64.035 57.4464L77.2046 78.7872L83.4758 68.7445L75.9503 57.4464L102.289 15.3924Z" fill="white"/>
<path d="M113.874 57.1303L107.603 66.8592H122.34L96.001 108.913L101.959 118.328L140.213 57.1303H113.874Z" stroke="white" stroke-width="1.29268"/>
<path d="M146.174 47.0898H134.885L148.682 25.1213H127.987L91.6137 83.1809L99.1392 94.7928L93.1816 104.208L80.012 83.1809L122.506 15.3924H165.928L146.174 47.0898Z" stroke="white" stroke-width="1.29268"/>
<path d="M84.7152 15.3965H73.1135L61.5117 34.5405L46.4608 10.3751H189.444L160.597 57.1366H145.86L139.902 66.8655L146.8 78.4774L111.995 134.654L117.953 144.069L158.716 78.4774L151.19 66.8655H165.927L207.004 0.64624H28.5879L61.5117 53.0567L84.7152 15.3965Z" stroke="white" stroke-width="1.29268"/>
<path d="M102.289 15.3924H90.6877L64.035 57.4464L77.2046 78.7872L83.4758 68.7445L75.9503 57.4464L102.289 15.3924Z" stroke="white" stroke-width="1.29268"/>
<path d="M62.0332 166.248C73.9452 166.248 82.7686 175.015 82.7686 185.838V185.947C82.7683 196.824 73.8347 205.645 61.9229 205.645C50.0109 205.645 41.1875 196.878 41.1875 186.054V185.947C41.1875 175.069 50.1212 166.248 62.0332 166.248ZM139.583 166.248C146.421 166.248 151.108 168.25 155.244 171.713L148.958 179.181C146.145 176.854 143.553 175.61 139.638 175.61C134.123 175.61 129.767 180.156 129.767 185.947V186.054C129.767 192.224 134.123 196.608 140.244 196.608C142.891 196.608 144.877 196.066 146.421 195.038V190.438H138.865V182.753H156.568V199.747C152.432 203.156 146.917 205.645 139.803 205.645C127.726 205.645 118.847 197.581 118.847 186.054V185.947C118.847 174.907 127.671 166.248 139.583 166.248ZM20.6807 190.979L20.7275 190.851L37.1562 176.845L25.5342 205.158H15.6074L0 167.005H11.9121L20.6807 190.979ZM98.9854 195.687H117.681V204.887H88.2871V167.005H98.9854V195.687ZM193.548 175.88H173.088V181.671H191.618V189.951H173.088V195.958H193.823V204.887H162.5V167.005H193.548V175.88ZM217.591 167.005C223.547 167.005 227.572 168.521 230.164 171.064C232.425 173.283 233.584 176.259 233.584 179.885V179.994C233.584 185.838 230.496 189.681 225.643 191.683L234.853 204.887H222.554L214.778 193.415H210.035V204.887H199.337V167.005H217.591ZM61.9229 175.718C56.022 175.718 52.1064 180.373 52.1064 185.838V185.947C52.1067 191.358 56.1325 196.174 62.0332 196.174C67.8789 196.174 71.7939 191.52 71.7939 186.054V185.947C71.7939 180.427 67.8237 175.718 61.9229 175.718ZM40.5303 168.626L22.7607 185.326L29.5049 167.005H41.1963L40.5303 168.626ZM210.035 185.189H217.149C220.734 185.189 222.885 183.457 222.885 180.697V180.588C222.885 177.558 220.624 176.043 217.095 176.042H210.035V185.189Z" fill="white"/>
</svg>
