<svg width="181" height="146" viewBox="0 0 181 146" fill="none" xmlns="http://www.w3.org/2000/svg">
<path d="M86.5765 57.2106L80.2964 66.9532H95.0545L68.6784 109.066L74.6444 118.494L112.953 57.2106H86.5765Z" fill="white"/>
<path d="M118.921 47.156H107.617L121.433 25.1566H100.709L64.285 83.2978L71.821 94.926L65.855 104.354L52.6669 83.2978L95.2202 15.4141H138.704L118.921 47.156Z" fill="white"/>
<path d="M57.3768 15.4181H45.7587L34.1407 34.589L19.0686 10.3897H162.253L133.365 57.2169H118.607L112.641 66.9594L119.549 78.5877L84.6949 134.843L90.6609 144.271L131.481 78.5877L123.945 66.9594H138.703L179.837 0.647148H1.17059L34.1407 53.1313L57.3768 15.4181Z" fill="white"/>
<path d="M74.9757 15.4141H63.3576L36.6675 57.5271L49.8556 78.8979L56.1356 68.841L48.5996 57.5271L74.9757 15.4141Z" fill="white"/>
<path d="M86.5765 57.2106L80.2964 66.9532H95.0545L68.6784 109.066L74.6444 118.494L112.953 57.2106H86.5765Z" stroke="white" stroke-width="1.29268"/>
<path d="M118.921 47.156H107.617L121.433 25.1566H100.709L64.285 83.2978L71.821 94.926L65.855 104.354L52.6669 83.2978L95.2202 15.4141H138.704L118.921 47.156Z" stroke="white" stroke-width="1.29268"/>
<path d="M57.3768 15.4181H45.7587L34.1407 34.589L19.0686 10.3897H162.253L133.365 57.2169H118.607L112.641 66.9594L119.549 78.5877L84.6949 134.843L90.6609 144.271L131.481 78.5877L123.945 66.9594H138.703L179.837 0.647148H1.17059L34.1407 53.1313L57.3768 15.4181Z" stroke="white" stroke-width="1.29268"/>
<path d="M74.9757 15.4141H63.3576L36.6675 57.5271L49.8556 78.8979L56.1356 68.841L48.5996 57.5271L74.9757 15.4141Z" stroke="white" stroke-width="1.29268"/>
</svg>
