<svg width="235" height="40" viewBox="0 0 235 40" fill="none" xmlns="http://www.w3.org/2000/svg">
<path d="M62.0722 0C73.9916 6.62146e-06 82.8205 8.77284 82.8205 19.6031V19.7116C82.8203 30.5958 73.881 39.4222 61.9617 39.4222C50.0423 39.4222 41.2134 30.6494 41.2134 19.8191V19.7116C41.2134 8.82715 50.1527 0 62.0722 0ZM139.671 0C146.513 8.95853e-05 151.203 2.00378 155.342 5.46925L149.052 12.9417C146.237 10.6132 143.643 9.36818 139.725 9.36818C134.207 9.36819 129.848 13.9174 129.848 19.7116V19.8191C129.848 25.9923 134.207 30.3793 140.332 30.3794C142.981 30.3794 144.968 29.837 146.513 28.8081V24.2056H138.952V16.5162H156.667V33.5201C152.528 36.9316 147.009 39.4222 139.891 39.4222C127.806 39.422 118.921 31.3532 118.921 19.8191V19.7116C118.921 8.66469 127.751 0 139.671 0ZM20.6936 24.747L20.7406 24.619L37.1796 10.6043L25.5502 38.9346H15.6172L0 0.758288H11.9196L20.6936 24.747ZM99.0475 29.4579H117.755V38.6639H88.3425V0.758288H99.0475V29.4579ZM193.669 9.63886H173.197V15.4335H191.738V23.718H173.197V29.7296H193.945V38.6639H162.602V0.758288H193.669V9.63886ZM217.727 0.758288C223.687 0.758295 227.715 2.27447 230.309 4.81943C232.571 7.03964 233.731 10.0181 233.731 13.6463V13.7547C233.731 19.6029 230.64 23.4479 225.784 25.4515L235 38.6639H222.693L214.913 27.184H210.167V38.6639H199.462V0.758288H217.727ZM61.9617 9.47665C56.0572 9.47667 52.1392 14.1338 52.1392 19.6031V19.7116C52.1394 25.1265 56.1678 29.9455 62.0722 29.9455C67.9215 29.9455 71.839 25.2884 71.839 19.8191V19.7116C71.839 14.1881 67.8663 9.47665 61.9617 9.47665ZM40.5557 2.3804L22.775 19.0901L29.5234 0.758288H41.2222L40.5557 2.3804ZM210.167 18.9533H217.286C220.873 18.9533 223.025 17.22 223.025 14.4583V14.3498C223.025 11.3176 220.762 9.80115 217.231 9.80107H210.167V18.9533Z" fill="white"/>
</svg>
