<svg width="480" height="82" viewBox="0 0 480 82" fill="none" xmlns="http://www.w3.org/2000/svg">
<path d="M126.786 0C151.132 0.000136705 169.166 18.0706 169.166 40.3794V40.6021C169.166 63.0225 150.906 81.2042 126.56 81.2043C102.214 81.2043 84.1802 63.1346 84.1801 40.8259V40.6021C84.1802 18.1819 102.44 0 126.786 0ZM285.285 0C299.261 7.77351e-05 308.842 4.12744 317.295 11.2662L304.446 26.6591C298.697 21.8628 293.4 19.2977 285.397 19.2977C274.126 19.2977 265.221 28.6671 265.221 40.6021V40.8259C265.221 53.5417 274.126 62.5767 286.637 62.5767C292.047 62.5767 296.105 61.4614 299.261 59.342V49.8607H283.819V34.0214H320.001V69.0461C311.547 76.0734 300.275 81.2043 285.735 81.2043C261.051 81.2042 242.904 64.5846 242.904 40.8259V40.6021C242.904 17.8472 260.939 0 285.285 0ZM42.2678 50.9764L42.3636 50.7126L75.9385 21.8495L52.1868 80.2009H31.8985L0 1.56215H24.3466L42.2678 50.9764ZM202.31 60.6804H240.52V79.6431H180.444V1.56215H202.31V60.6804ZM395.581 19.8556H353.764V31.79H391.636V48.8564H353.764V61.2383H396.144V79.6431H332.123V1.56215H395.581V19.8556ZM444.72 1.56215C456.893 1.56215 465.122 4.6852 470.42 9.92779C475.041 14.5011 477.408 20.6365 477.408 28.1098V28.3326C477.408 40.3793 471.096 48.299 461.177 52.4262L480 79.6431H454.865L438.972 55.996H429.279V79.6431H407.412V1.56215H444.72ZM126.56 19.5205C114.5 19.5205 106.498 29.1134 106.498 40.3794V40.6021C106.498 51.7566 114.726 61.6848 126.786 61.6848C138.733 61.6846 146.736 52.0916 146.736 40.8259V40.6021C146.736 29.2248 138.62 19.5205 126.56 19.5205ZM82.8358 4.90625L46.5185 39.3282L60.3024 1.56215H84.1976L82.8358 4.90625ZM429.279 39.041H443.819C451.145 39.041 455.541 35.4711 455.541 29.7824V29.5596C455.541 23.3132 450.92 20.1897 443.706 20.1897H429.279V39.041Z" fill="white"/>
</svg>
